<svg width="1600" height="980" viewBox="0 0 1600 980" fill="none" xmlns="http://www.w3.org/2000/svg">
  <rect width="1600" height="980" rx="36" fill="#F6EEE3"/>
  <rect x="32" y="32" width="1536" height="916" rx="28" fill="#FFFDF9" stroke="#E7DCCB"/>
  <rect x="56" y="56" width="1488" height="64" rx="18" fill="#FBF5EC" stroke="#E7DCCB"/>
  <rect x="84" y="78" width="178" height="18" rx="9" fill="#C59E67"/>
  <rect x="1272" y="72" width="110" height="30" rx="15" fill="#F3E8D7"/>
  <rect x="1398" y="72" width="118" height="30" rx="15" fill="#1D1813"/>
  <text x="101" y="90" fill="#FFF9F2" font-family="Arial, sans-serif" font-size="12" font-weight="700" letter-spacing="2">STILLOAK STUDIO</text>
  <text x="1305" y="91" fill="#7A6248" font-family="Arial, sans-serif" font-size="12" font-weight="700">Profile</text>
  <text x="1437" y="91" fill="#FFF9F2" font-family="Arial, sans-serif" font-size="12" font-weight="700">Members</text>

  <rect x="56" y="144" width="260" height="772" rx="24" fill="#FFF9F2" stroke="#E7DCCB"/>
  <text x="88" y="196" fill="#8B6B43" font-family="Arial, sans-serif" font-size="11" font-weight="700" letter-spacing="2.8">MEMBERS AREA</text>
  <text x="88" y="244" fill="#1D1813" font-family="Georgia, serif" font-size="34" font-weight="700">Savings Studio</text>
  <text x="88" y="280" fill="#7A6248" font-family="Arial, sans-serif" font-size="16">A calmer private dashboard for</text>
  <text x="88" y="304" fill="#7A6248" font-family="Arial, sans-serif" font-size="16">budgets, goals, and spending clarity.</text>

  <rect x="88" y="346" width="196" height="54" rx="16" fill="#1D1813"/>
  <text x="118" y="379" fill="#FFF9F2" font-family="Arial, sans-serif" font-size="14" font-weight="700">Monthly summary</text>

  <rect x="88" y="420" width="196" height="54" rx="16" fill="#F6EEE3"/>
  <text x="118" y="453" fill="#7A6248" font-family="Arial, sans-serif" font-size="14" font-weight="700">Recurring spend</text>

  <rect x="88" y="494" width="196" height="54" rx="16" fill="#F6EEE3"/>
  <text x="118" y="527" fill="#7A6248" font-family="Arial, sans-serif" font-size="14" font-weight="700">Savings goals</text>

  <rect x="88" y="568" width="196" height="54" rx="16" fill="#F6EEE3"/>
  <text x="118" y="601" fill="#7A6248" font-family="Arial, sans-serif" font-size="14" font-weight="700">CSV import</text>

  <rect x="88" y="650" width="196" height="126" rx="20" fill="#F3E8D7"/>
  <text x="112" y="690" fill="#8B6B43" font-family="Arial, sans-serif" font-size="11" font-weight="700" letter-spacing="2.4">THIS MONTH</text>
  <text x="112" y="734" fill="#1D1813" font-family="Georgia, serif" font-size="38" font-weight="700">€1,248</text>
  <text x="112" y="768" fill="#7A6248" font-family="Arial, sans-serif" font-size="14">Projected after recurring</text>

  <text x="344" y="184" fill="#8B6B43" font-family="Arial, sans-serif" font-size="11" font-weight="700" letter-spacing="2.8">PRIVATE DASHBOARD PREVIEW</text>
  <text x="344" y="226" fill="#1D1813" font-family="Georgia, serif" font-size="42" font-weight="700">A full money view after purchase</text>
  <text x="344" y="264" fill="#7A6248" font-family="Arial, sans-serif" font-size="16">Members unlock a focused, calmer dashboard instead of a generic expense list.</text>

  <rect x="344" y="304" width="368" height="172" rx="24" fill="#1D1813"/>
  <text x="372" y="346" fill="#C7A676" font-family="Arial, sans-serif" font-size="11" font-weight="700" letter-spacing="2.4">SIGNAL OVERVIEW</text>
  <text x="372" y="396" fill="#FFF9F2" font-family="Georgia, serif" font-size="44" font-weight="700">84 / 100</text>
  <text x="372" y="430" fill="#F2E8DA" font-family="Arial, sans-serif" font-size="16">Strong control</text>
  <text x="372" y="456" fill="#CDBCA5" font-family="Arial, sans-serif" font-size="14">Your month is stable, but one category still needs tightening.</text>

  <rect x="736" y="304" width="256" height="172" rx="24" fill="#FBF5EC" stroke="#E7DCCB"/>
  <text x="764" y="346" fill="#8B6B43" font-family="Arial, sans-serif" font-size="11" font-weight="700" letter-spacing="2.4">TOP CATEGORY</text>
  <text x="764" y="392" fill="#1D1813" font-family="Georgia, serif" font-size="34" font-weight="700">Food & home</text>
  <text x="764" y="428" fill="#7A6248" font-family="Arial, sans-serif" font-size="14">32% of current month</text>
  <rect x="764" y="446" width="176" height="12" rx="6" fill="#EDE2D2"/>
  <rect x="764" y="446" width="102" height="12" rx="6" fill="#C59E67"/>

  <rect x="1016" y="304" width="248" height="172" rx="24" fill="#FBF5EC" stroke="#E7DCCB"/>
  <text x="1044" y="346" fill="#8B6B43" font-family="Arial, sans-serif" font-size="11" font-weight="700" letter-spacing="2.4">GOAL PACE</text>
  <text x="1044" y="392" fill="#1D1813" font-family="Georgia, serif" font-size="34" font-weight="700">€280 / month</text>
  <text x="1044" y="428" fill="#7A6248" font-family="Arial, sans-serif" font-size="14">Vacation fund remains on track</text>
  <rect x="1044" y="446" width="156" height="12" rx="6" fill="#EDE2D2"/>
  <rect x="1044" y="446" width="118" height="12" rx="6" fill="#A88455"/>

  <rect x="1288" y="304" width="232" height="172" rx="24" fill="#FBF5EC" stroke="#E7DCCB"/>
  <text x="1316" y="346" fill="#8B6B43" font-family="Arial, sans-serif" font-size="11" font-weight="700" letter-spacing="2.4">AFTER RECURRING</text>
  <text x="1316" y="392" fill="#1D1813" font-family="Georgia, serif" font-size="34" font-weight="700">€462 left</text>
  <text x="1316" y="428" fill="#7A6248" font-family="Arial, sans-serif" font-size="14">Healthy room for savings</text>

  <rect x="344" y="500" width="596" height="196" rx="24" fill="#FBF5EC" stroke="#E7DCCB"/>
  <text x="372" y="538" fill="#8B6B43" font-family="Arial, sans-serif" font-size="11" font-weight="700" letter-spacing="2.4">WEEKLY SPENDING RHYTHM</text>
  <rect x="392" y="648" width="78" height="16" rx="8" fill="#E9DBC7"/>
  <rect x="506" y="608" width="78" height="56" rx="8" fill="#C59E67"/>
  <rect x="620" y="556" width="78" height="108" rx="8" fill="#1D1813"/>
  <rect x="734" y="592" width="78" height="72" rx="8" fill="#B68C58"/>
  <rect x="848" y="628" width="78" height="36" rx="8" fill="#DDCCB6"/>
  <text x="404" y="690" fill="#7A6248" font-family="Arial, sans-serif" font-size="12">Week 1</text>
  <text x="518" y="690" fill="#7A6248" font-family="Arial, sans-serif" font-size="12">Week 2</text>
  <text x="632" y="690" fill="#7A6248" font-family="Arial, sans-serif" font-size="12">Week 3</text>
  <text x="746" y="690" fill="#7A6248" font-family="Arial, sans-serif" font-size="12">Week 4</text>
  <text x="860" y="690" fill="#7A6248" font-family="Arial, sans-serif" font-size="12">Week 5</text>

  <rect x="964" y="500" width="556" height="196" rx="24" fill="#FBF5EC" stroke="#E7DCCB"/>
  <text x="992" y="538" fill="#8B6B43" font-family="Arial, sans-serif" font-size="11" font-weight="700" letter-spacing="2.4">CATEGORY PRESSURE</text>
  <text x="992" y="584" fill="#1D1813" font-family="Arial, sans-serif" font-size="16" font-weight="700">Food</text>
  <rect x="1104" y="572" width="360" height="14" rx="7" fill="#E9DBC7"/>
  <rect x="1104" y="572" width="278" height="14" rx="7" fill="#1D1813"/>
  <text x="1478" y="585" text-anchor="end" fill="#7A6248" font-family="Arial, sans-serif" font-size="13">92%</text>

  <text x="992" y="630" fill="#1D1813" font-family="Arial, sans-serif" font-size="16" font-weight="700">Home</text>
  <rect x="1104" y="618" width="360" height="14" rx="7" fill="#E9DBC7"/>
  <rect x="1104" y="618" width="230" height="14" rx="7" fill="#C59E67"/>
  <text x="1478" y="631" text-anchor="end" fill="#7A6248" font-family="Arial, sans-serif" font-size="13">74%</text>

  <text x="992" y="676" fill="#1D1813" font-family="Arial, sans-serif" font-size="16" font-weight="700">Transport</text>
  <rect x="1104" y="664" width="360" height="14" rx="7" fill="#E9DBC7"/>
  <rect x="1104" y="664" width="172" height="14" rx="7" fill="#D5B287"/>
  <text x="1478" y="677" text-anchor="end" fill="#7A6248" font-family="Arial, sans-serif" font-size="13">56%</text>

  <rect x="344" y="720" width="1176" height="172" rx="24" fill="#1D1813"/>
  <text x="372" y="760" fill="#C7A676" font-family="Arial, sans-serif" font-size="11" font-weight="700" letter-spacing="2.4">WHAT MEMBERS ACTUALLY GET</text>
  <text x="372" y="808" fill="#FFF9F2" font-family="Georgia, serif" font-size="34" font-weight="700">Budgets, recurring control, AI summaries, and a real action plan.</text>
  <text x="372" y="846" fill="#D6C7B4" font-family="Arial, sans-serif" font-size="15">This is not only a ledger. It is a private decision layer after purchase.</text>
</svg>
