<svg width="1200" height="1350" viewBox="0 0 1200 1350" fill="none" xmlns="http://www.w3.org/2000/svg">
  <rect width="1200" height="1350" rx="48" fill="#F3ECE2"/>
  <circle cx="980" cy="180" r="180" fill="#D7C3A7" fill-opacity="0.32"/>
  <circle cx="190" cy="230" r="130" fill="#E8DDD0"/>
  <rect x="88" y="86" width="1024" height="1178" rx="36" fill="#FFFBF5" stroke="#E4D7C7" stroke-width="2"/>
  <text x="152" y="176" fill="#7F6138" font-family="Arial, sans-serif" font-size="28" letter-spacing="6">STILLOAK</text>
  <text x="152" y="254" fill="#231C16" font-family="Georgia, serif" font-size="72" font-weight="700">Budget clarity</text>
  <text x="152" y="310" fill="#796B5C" font-family="Arial, sans-serif" font-size="28">A calmer monthly view for focused money decisions.</text>

  <rect x="152" y="386" width="410" height="278" rx="28" fill="#191513"/>
  <text x="194" y="448" fill="#F8F3EC" font-family="Arial, sans-serif" font-size="22" letter-spacing="4">MONTH PRESSURE</text>
  <text x="194" y="542" fill="#FFFFFF" font-family="Georgia, serif" font-size="88" font-weight="700">€184</text>
  <text x="194" y="596" fill="#D0C1AF" font-family="Arial, sans-serif" font-size="24">still free after essentials</text>
  <rect x="194" y="620" width="188" height="16" rx="8" fill="#8D6736"/>
  <rect x="194" y="620" width="118" height="16" rx="8" fill="#F1E5D6"/>

  <rect x="596" y="386" width="456" height="278" rx="28" fill="#F6EFE5" stroke="#E4D7C7" stroke-width="2"/>
  <text x="640" y="448" fill="#7F6138" font-family="Arial, sans-serif" font-size="22" letter-spacing="4">CATEGORY BALANCE</text>
  <rect x="640" y="494" width="368" height="18" rx="9" fill="#E4D7C7"/>
  <rect x="640" y="494" width="228" height="18" rx="9" fill="#8D6736"/>
  <text x="640" y="556" fill="#231C16" font-family="Georgia, serif" font-size="42" font-weight="700">Food</text>
  <text x="930" y="556" fill="#231C16" font-family="Arial, sans-serif" font-size="30" text-anchor="end">84 € left</text>
  <rect x="640" y="586" width="368" height="18" rx="9" fill="#E4D7C7"/>
  <rect x="640" y="586" width="286" height="18" rx="9" fill="#B59363"/>
  <text x="640" y="648" fill="#231C16" font-family="Georgia, serif" font-size="42" font-weight="700">Transport</text>
  <text x="930" y="648" fill="#231C16" font-family="Arial, sans-serif" font-size="30" text-anchor="end">42 € left</text>

  <rect x="152" y="724" width="900" height="192" rx="28" fill="#FFFDF9" stroke="#E4D7C7" stroke-width="2"/>
  <text x="196" y="790" fill="#7F6138" font-family="Arial, sans-serif" font-size="22" letter-spacing="4">THIS WEEK</text>
  <text x="196" y="858" fill="#231C16" font-family="Georgia, serif" font-size="52" font-weight="700">Spend less on quick small purchases.</text>
  <text x="196" y="902" fill="#796B5C" font-family="Arial, sans-serif" font-size="28">Your strongest savings space sits in everyday flexible spending.</text>

  <rect x="152" y="972" width="280" height="176" rx="26" fill="#F7F0E7"/>
  <text x="188" y="1034" fill="#7F6138" font-family="Arial, sans-serif" font-size="20" letter-spacing="4">GOAL</text>
  <text x="188" y="1098" fill="#231C16" font-family="Georgia, serif" font-size="56" font-weight="700">62%</text>
  <text x="188" y="1138" fill="#796B5C" font-family="Arial, sans-serif" font-size="24">travel fund pace</text>

  <rect x="460" y="972" width="280" height="176" rx="26" fill="#1E1815"/>
  <text x="496" y="1034" fill="#D9C7AF" font-family="Arial, sans-serif" font-size="20" letter-spacing="4">AI NOTE</text>
  <text x="496" y="1098" fill="#FFFFFF" font-family="Georgia, serif" font-size="42" font-weight="700">Strong control</text>
  <text x="496" y="1138" fill="#D0C1AF" font-family="Arial, sans-serif" font-size="24">month remains stable</text>

  <rect x="768" y="972" width="284" height="176" rx="26" fill="#F7F0E7"/>
  <text x="804" y="1034" fill="#7F6138" font-family="Arial, sans-serif" font-size="20" letter-spacing="4">RECURRING</text>
  <text x="804" y="1098" fill="#231C16" font-family="Georgia, serif" font-size="52" font-weight="700">€312</text>
  <text x="804" y="1138" fill="#796B5C" font-family="Arial, sans-serif" font-size="24">fixed monthly load</text>
</svg>
