<svg width="1200" height="1350" viewBox="0 0 1200 1350" fill="none" xmlns="http://www.w3.org/2000/svg">
  <rect width="1200" height="1350" rx="48" fill="#F5EFE6"/>
  <circle cx="1010" cy="220" r="210" fill="#E6D8C5"/>
  <rect x="86" y="88" width="1028" height="1174" rx="38" fill="#FFFBF6" stroke="#E4D7C7" stroke-width="2"/>
  <text x="150" y="180" fill="#7F6138" font-family="Arial, sans-serif" font-size="28" letter-spacing="6">STILLOAK</text>
  <text x="150" y="258" fill="#231C16" font-family="Georgia, serif" font-size="72" font-weight="700">Goal pace</text>
  <text x="150" y="314" fill="#796B5C" font-family="Arial, sans-serif" font-size="28">A savings target framed like a premium monthly dashboard.</text>

  <rect x="150" y="392" width="902" height="332" rx="30" fill="#191513"/>
  <text x="196" y="456" fill="#D9C7AF" font-family="Arial, sans-serif" font-size="22" letter-spacing="4">TARGET PROGRESS</text>
  <text x="196" y="564" fill="#FFFFFF" font-family="Georgia, serif" font-size="112" font-weight="700">62%</text>
  <text x="196" y="622" fill="#D0C1AF" font-family="Arial, sans-serif" font-size="28">You are moving well, but small flexible spending still matters.</text>
  <rect x="196" y="666" width="810" height="24" rx="12" fill="#3F3229"/>
  <rect x="196" y="666" width="506" height="24" rx="12" fill="#B6905E"/>

  <rect x="150" y="778" width="286" height="202" rx="28" fill="#F7F0E7"/>
  <text x="186" y="840" fill="#7F6138" font-family="Arial, sans-serif" font-size="20" letter-spacing="4">NEEDED NEXT</text>
  <text x="186" y="912" fill="#231C16" font-family="Georgia, serif" font-size="60" font-weight="700">€120</text>
  <text x="186" y="952" fill="#796B5C" font-family="Arial, sans-serif" font-size="24">recommended this month</text>

  <rect x="458" y="778" width="286" height="202" rx="28" fill="#F7F0E7"/>
  <text x="494" y="840" fill="#7F6138" font-family="Arial, sans-serif" font-size="20" letter-spacing="4">DEADLINE</text>
  <text x="494" y="912" fill="#231C16" font-family="Georgia, serif" font-size="60" font-weight="700">8 mo.</text>
  <text x="494" y="952" fill="#796B5C" font-family="Arial, sans-serif" font-size="24">at the current pace</text>

  <rect x="766" y="778" width="286" height="202" rx="28" fill="#1E1815"/>
  <text x="802" y="840" fill="#D9C7AF" font-family="Arial, sans-serif" font-size="20" letter-spacing="4">AI COMMENT</text>
  <text x="802" y="912" fill="#FFFFFF" font-family="Georgia, serif" font-size="48" font-weight="700">Stay steady</text>
  <text x="802" y="952" fill="#D0C1AF" font-family="Arial, sans-serif" font-size="24">you do not need a radical cut</text>

  <rect x="150" y="1036" width="902" height="152" rx="28" fill="#FFFDF8" stroke="#E4D7C7" stroke-width="2"/>
  <text x="194" y="1096" fill="#7F6138" font-family="Arial, sans-serif" font-size="20" letter-spacing="4">NEXT BEST MOVE</text>
  <text x="194" y="1160" fill="#231C16" font-family="Georgia, serif" font-size="46" font-weight="700">Protect food and transport budgets this week to keep the goal on track.</text>
</svg>
