<svg width="1200" height="1350" viewBox="0 0 1200 1350" fill="none" xmlns="http://www.w3.org/2000/svg">
  <rect width="1200" height="1350" rx="48" fill="#F4EDE4"/>
  <circle cx="210" cy="170" r="130" fill="#E5D8C6"/>
  <rect x="86" y="88" width="1028" height="1174" rx="38" fill="#FFFBF6" stroke="#E4D7C7" stroke-width="2"/>
  <text x="150" y="180" fill="#7F6138" font-family="Arial, sans-serif" font-size="28" letter-spacing="6">STILLOAK</text>
  <text x="150" y="258" fill="#231C16" font-family="Georgia, serif" font-size="72" font-weight="700">Recurring flow</text>
  <text x="150" y="314" fill="#796B5C" font-family="Arial, sans-serif" font-size="28">Fixed payments shown as the true weight of the month.</text>

  <rect x="150" y="392" width="902" height="230" rx="30" fill="#191513"/>
  <text x="194" y="456" fill="#D9C7AF" font-family="Arial, sans-serif" font-size="22" letter-spacing="4">MONTHLY LOAD</text>
  <text x="194" y="550" fill="#FFFFFF" font-family="Georgia, serif" font-size="96" font-weight="700">€312</text>
  <text x="194" y="602" fill="#D0C1AF" font-family="Arial, sans-serif" font-size="28">rent, subscriptions, phone and other predictable pressure</text>

  <rect x="150" y="680" width="432" height="454" rx="30" fill="#F7F0E7"/>
  <text x="190" y="742" fill="#7F6138" font-family="Arial, sans-serif" font-size="20" letter-spacing="4">ACTIVE ITEMS</text>
  <rect x="190" y="790" width="352" height="78" rx="22" fill="#FFFDF9"/>
  <text x="218" y="836" fill="#231C16" font-family="Georgia, serif" font-size="38" font-weight="700">Rent</text>
  <text x="510" y="836" fill="#231C16" font-family="Arial, sans-serif" font-size="30" text-anchor="end">220 €</text>
  <rect x="190" y="886" width="352" height="78" rx="22" fill="#FFFDF9"/>
  <text x="218" y="932" fill="#231C16" font-family="Georgia, serif" font-size="38" font-weight="700">Phone</text>
  <text x="510" y="932" fill="#231C16" font-family="Arial, sans-serif" font-size="30" text-anchor="end">29 €</text>
  <rect x="190" y="982" width="352" height="78" rx="22" fill="#FFFDF9"/>
  <text x="218" y="1028" fill="#231C16" font-family="Georgia, serif" font-size="38" font-weight="700">Netflix</text>
  <text x="510" y="1028" fill="#231C16" font-family="Arial, sans-serif" font-size="30" text-anchor="end">12 €</text>

  <rect x="620" y="680" width="432" height="454" rx="30" fill="#FFFDF8" stroke="#E4D7C7" stroke-width="2"/>
  <text x="660" y="742" fill="#7F6138" font-family="Arial, sans-serif" font-size="20" letter-spacing="4">IMPACT</text>
  <text x="660" y="822" fill="#231C16" font-family="Georgia, serif" font-size="58" font-weight="700">Before flexible spending</text>
  <text x="660" y="874" fill="#796B5C" font-family="Arial, sans-serif" font-size="28">Recurring payments already shape the month before daily purchases begin.</text>
  <rect x="660" y="938" width="304" height="18" rx="9" fill="#E4D7C7"/>
  <rect x="660" y="938" width="228" height="18" rx="9" fill="#8D6736"/>
  <text x="660" y="1006" fill="#231C16" font-family="Georgia, serif" font-size="42" font-weight="700">68%</text>
  <text x="660" y="1046" fill="#796B5C" font-family="Arial, sans-serif" font-size="24">of your base monthly money pressure</text>
</svg>
